HIERARCHY
ROOT Hips
{
	OFFSET 55.310501 45.591206 43.872097
	CHANNELS 6 Xposition Yposition Zposition Zrotation Xrotation Yrotation
	JOINT Chest
	{
		OFFSET -0.153500 1.163101 7.852402
		CHANNELS 6 Xposition Yposition Zposition Zrotation Xrotation Yrotation
		JOINT Chest2
		{
			OFFSET 0.000000 0.000000 3.343300
			CHANNELS 6 Xposition Yposition Zposition Zrotation Xrotation Yrotation
			JOINT Neck
			{
				OFFSET 0.000000 0.000000 7.785500
				CHANNELS 6 Xposition Yposition Zposition Zrotation Xrotation Yrotation
				JOINT Head
				{
					OFFSET 0.000000 0.000000 2.173901
					CHANNELS 6 Xposition Yposition Zposition Zrotation Xrotation Yrotation
					End Site
					{
						OFFSET 0.000000 0.000000 10.528198
					}
				}
			}
			JOINT LeftCollar
			{
				OFFSET 2.676300 -1.652401 4.938301
				CHANNELS 6 Xposition Yposition Zposition Zrotation Xrotation Yrotation
				JOINT LeftShoulder
				{
					OFFSET 4.299000 0.000000 0.000000
					CHANNELS 6 Xposition Yposition Zposition Zrotation Xrotation Yrotation
					JOINT LeftElbow
					{
						OFFSET 0.000000 0.000000 -10.245102
						CHANNELS 6 Xposition Yposition Zposition Zrotation Xrotation Yrotation
						JOINT LeftWrist
						{
							OFFSET 0.000000 0.000000 -12.703300
							CHANNELS 6 Xposition Yposition Zposition Zrotation Xrotation Yrotation
							End Site
							{
								OFFSET 0.000000 0.000000 -2.173901
							}
						}
					}
				}
			}
			JOINT RightCollar
			{
				OFFSET -2.534599 -1.686401 5.195000
				CHANNELS 6 Xposition Yposition Zposition Zrotation Xrotation Yrotation
				JOINT RightShoulder
				{
					OFFSET -4.144100 0.000000 0.000000
					CHANNELS 6 Xposition Yposition Zposition Zrotation Xrotation Yrotation
					JOINT RightElbow
					{
						OFFSET 0.000000 0.000000 -10.116501
						CHANNELS 6 Xposition Yposition Zposition Zrotation Xrotation Yrotation
						JOINT RightWrist
						{
							OFFSET 0.000000 0.000000 -12.937801
							CHANNELS 6 Xposition Yposition Zposition Zrotation Xrotation Yrotation
							End Site
							{
								OFFSET 0.000000 0.000000 -2.173901
							}
						}
					}
				}
			}
		}
	}
	JOINT LeftHip
	{
		OFFSET 2.175598 0.064499 -2.662899
		CHANNELS 6 Xposition Yposition Zposition Zrotation Xrotation Yrotation
		JOINT LeftKnee
		{
			OFFSET 0.000000 -0.000004 -18.585800
			CHANNELS 6 Xposition Yposition Zposition Zrotation Xrotation Yrotation
			JOINT LeftAnkle
			{
				OFFSET 0.000000 0.000000 -18.979500
				CHANNELS 6 Xposition Yposition Zposition Zrotation Xrotation Yrotation
				End Site
				{
					OFFSET 0.000000 -9.264000 0.000000
				}
			}
		}
	}
	JOINT RightHip
	{
		OFFSET -2.092400 -0.058102 -2.581200
		CHANNELS 6 Xposition Yposition Zposition Zrotation Xrotation Yrotation
		JOINT RightKnee
		{
			OFFSET 0.000000 -0.000004 -18.665001
			CHANNELS 6 Xposition Yposition Zposition Zrotation Xrotation Yrotation
			JOINT RightAnkle
			{
				OFFSET 0.000000 0.000000 -18.566601
				CHANNELS 6 Xposition Yposition Zposition Zrotation Xrotation Yrotation
				End Site
				{
					OFFSET 0.000000 -8.497601 0.000000
				}
			}
		}
	}
}
MOTION
Frames: 10
Frame Time: 0.041667
66.827599 -7.673199 42.401295 3170.258640 34.518444 14.084291 -0.153499 1.163105 7.852397 20.390102 7.034584 7.007811 0.000003 -0.000003 3.343306 -5.669521 -2.831127 -0.036753 -0.000003 -0.000004 7.785504 48.859157 -23.400129 13.358358 0.000005 -0.000000 2.173909 5.311468 -9.799703 6.846417 2.676289 -1.652395 4.938310 -3.045724 6.160699 3.213193 4.299004 0.000004 -0.000002 -363.809562 16.447633 270.063795 -0.000011 0.000010 -10.245100 0.829171 725.123427 384.156012 -0.000004 0.000000 -12.703301 1214.372882 -172.143676 556.073021 -2.534598 -1.686399 5.195001 6.243327 6.582995 20.505044 -4.144097 0.000001 -0.000000 166.062949 180.069495 -90.608641 0.000000 0.000004 -10.116490 -580.363687 -166.934140 -196.053053 0.000006 0.000003 -12.937805 -1437.752088 -10.473620 15.025113 2.175589 0.064500 -2.662901 -990.540480 -31.481633 49.588888 -0.000006 -0.000001 -18.585802 492.454727 -224.722909 -174.792887 -0.000003 -0.000008 -18.979506 695.169277 10.450930 -742.201632 -2.092396 -0.058100 -2.581204 1510.648894 41.400980 -21.042126 -0.000011 -0.000007 -18.665001 -1128.255781 66.821530 -1137.650952 0.000002 -0.000006 -18.566618 673.634456 10.409453 133.743423
66.834602 -7.694393 42.348095 3170.163346 34.698457 14.364528 -0.153502 1.163105 7.852406 20.173215 7.148100 6.867856 0.000004 0.000005 3.343296 -5.675041 -2.870536 -0.036826 0.000004 -0.000010 7.785494 49.215772 -23.671648 13.493203 0.000001 0.000000 2.173913 5.282602 -9.442075 6.977700 2.676297 -1.652407 4.938292 -2.626932 5.900691 3.119966 4.299001 0.000005 -0.000002 -364.045121 16.500019 270.087017 -0.000002 0.000021 -10.245093 0.522761 725.159490 384.111917 -0.000004 -0.000002 -12.703298 1214.756575 -172.177826 556.055317 -2.534598 -1.686410 5.194999 6.365038 6.427450 20.218316 -4.144104 -0.000002 0.000002 165.986861 180.473501 -90.142719 0.000002 0.000000 -10.116491 -580.058897 -166.954590 -196.028410 0.000011 0.000008 -12.937806 -1437.597016 -10.402533 15.161239 2.175593 0.064501 -2.662891 -990.438300 -31.488053 50.044304 0.000002 0.000001 -18.585802 490.560415 -224.876055 -174.034668 -0.000001 0.000006 -18.979500 696.556024 10.040493 -742.076667 -2.092396 -0.058101 -2.581202 1512.397095 41.622872 -22.614210 -0.000005 -0.000005 -18.665001 -1128.930276 66.888029 -1138.147534 -0.000005 0.000002 -18.566612 673.316551 9.770677 133.569759
66.841705 -7.712391 42.294296 3169.964669 34.920343 14.585872 -0.153497 1.163114 7.852394 20.125837 7.134093 6.833258 0.000001 0.000004 3.343310 -5.658924 -2.915665 -0.033971 0.000005 0.000006 7.785490 49.381656 -23.756112 13.556058 -0.000001 0.000001 2.173902 5.297648 -9.452904 7.023841 2.676299 -1.652408 4.938291 -2.741592 6.020069 3.197861 4.299004 0.000003 -0.000001 -363.860815 16.386508 269.867714 0.000006 0.000005 -10.245097 0.524275 725.255004 384.150411 0.000003 -0.000001 -12.703300 1214.914161 -172.203262 556.053897 -2.534592 -1.686400 5.194999 6.555046 6.526180 19.975814 -4.144097 0.000001 -0.000002 165.739595 179.844550 -89.783772 -0.000000 -0.000011 -10.116501 -580.892399 -167.060608 -195.967307 0.000008 0.000006 -12.937801 -1437.310694 -10.555529 15.106596 2.175602 0.064504 -2.662914 -989.788176 -31.229182 50.784044 -0.000013 0.000002 -18.585802 489.199076 -225.161175 -173.651549 -0.000003 0.000008 -18.979502 697.230410 9.822583 -742.023063 -2.092396 -0.058105 -2.581202 1513.573526 41.989862 -23.738223 -0.000009 0.000001 -18.665001 -1129.665969 67.136074 -1138.215836 -0.000003 0.000001 -18.566622 673.229945 9.520205 133.527111
66.839500 -7.727497 42.241398 3169.630045 35.061164 15.090500 -0.153496 1.163101 7.852396 20.428292 7.121940 6.455958 0.000005 -0.000004 3.343300 -5.760344 -2.927082 -0.031953 0.000003 -0.000008 7.785504 49.560881 -23.715296 13.782488 0.000001 0.000003 2.173904 5.225013 -9.538169 7.097882 2.676293 -1.652406 4.938305 -2.864651 6.135085 3.291169 4.299002 0.000004 -0.000015 -363.764428 16.360868 269.808673 -0.000008 0.000010 -10.245096 0.152986 725.095997 384.055854 -0.000002 0.000012 -12.703302 1215.647560 -172.228028 555.988327 -2.534598 -1.686408 5.195005 6.331161 6.506432 20.508154 -4.144103 -0.000002 -0.000000 165.695458 179.017537 -90.170470 0.000002 -0.000004 -10.116489 -581.924249 -166.961365 -195.965231 0.000014 0.000000 -12.937797 -1436.956726 -10.652739 15.107803 2.175605 0.064494 -2.662903 -988.596444 -30.992868 51.606208 -0.000010 0.000006 -18.585812 488.007454 -225.499816 -173.366443 -0.000022 0.000002 -18.979506 697.356304 9.768448 -742.081748 -2.092390 -0.058110 -2.581200 1514.320367 42.263626 -24.602481 -0.000004 -0.000006 -18.665003 -1129.920599 67.426016 -1138.168735 0.000001 0.000000 -18.566616 673.200711 9.224713 133.379757
66.831001 -7.734901 42.187096 3169.434209 35.241816 15.254640 -0.153499 1.163105 7.852406 20.455413 7.154505 6.484536 0.000007 -0.000001 3.343306 -5.796922 -2.896017 -0.031673 -0.000002 0.000004 7.785496 49.696248 -23.849298 13.882664 0.000005 0.000006 2.173901 5.235338 -9.585090 7.023855 2.676296 -1.652396 4.938303 -2.955413 6.204840 3.203401 4.299000 0.000001 -0.000012 -363.689760 16.334181 269.820558 -0.000005 0.000004 -10.245095 -0.007948 725.079440 383.919524 -0.000006 -0.000004 -12.703299 1216.101303 -172.256715 555.975486 -2.534600 -1.686399 5.195005 6.359622 6.490535 20.541599 -4.144105 0.000006 -0.000001 165.542639 177.723202 -90.207189 0.000001 0.000008 -10.116494 -583.100025 -166.819693 -195.870318 0.000002 0.000001 -12.937803 -1436.842198 -10.696097 15.191797 2.175600 0.064493 -2.662888 -987.156422 -30.355591 52.482596 -0.000008 -0.000001 -18.585802 486.924896 -225.860272 -173.053184 -0.000006 0.000008 -18.979504 697.051513 9.807024 -742.274797 -2.092394 -0.058102 -2.581200 1514.396974 42.868354 -25.065481 0.000006 0.000002 -18.665009 -1130.546135 68.009047 -1137.511398 0.000006 0.000002 -18.566622 673.378733 9.003380 133.147708
66.821205 -7.744400 42.137985 3169.333232 35.470514 15.415220 -0.153496 1.163102 7.852403 20.545110 7.184666 6.449861 0.000006 0.000004 3.343297 -5.841232 -2.912730 -0.028501 -0.000002 0.000006 7.785497 49.637235 -23.966980 14.066933 -0.000001 0.000003 2.173905 5.305275 -9.648277 6.949191 2.676297 -1.652393 4.938298 -3.217265 6.414899 3.358711 4.298998 0.000003 -0.000006 -363.494253 16.441056 269.604178 -0.000004 0.000007 -10.245098 0.208419 725.116870 383.674757 0.000003 0.000010 -12.703299 1216.381286 -172.278585 555.983464 -2.534598 -1.686397 5.194998 6.164195 6.385112 20.606971 -4.144104 -0.000006 0.000004 165.559537 177.549757 -90.149754 0.000003 0.000000 -10.116492 -583.437272 -166.854691 -195.940560 0.000000 0.000006 -12.937801 -1436.443861 -10.701356 15.197164 2.175611 0.064493 -2.662893 -986.335925 -30.094664 53.023541 -0.000008 0.000010 -18.585800 486.054129 -225.965990 -172.570412 -0.000010 -0.000006 -18.979504 697.063698 9.896957 -742.409160 -2.092382 -0.058109 -2.581198 1515.448495 43.221632 -26.219378 -0.000007 0.000002 -18.665007 -1131.256474 68.150965 -1137.594343 -0.000008 -0.000005 -18.566624 673.368242 9.096338 133.107929
66.816498 -7.754299 42.093590 3169.027021 35.775216 15.744402 -0.153496 1.163101 7.852396 20.534609 7.071722 6.642285 0.000011 0.000007 3.343301 -5.786141 -2.896251 -0.029848 -0.000004 -0.000011 7.785502 49.708898 -24.324646 14.061747 0.000002 0.000002 2.173910 5.316908 -9.780174 6.895297 2.676293 -1.652401 4.938304 -3.158577 6.382597 3.033099 4.299006 0.000008 -0.000011 -363.568347 16.505215 269.654994 -0.000000 0.000005 -10.245094 0.416689 725.359533 383.467201 -0.000008 0.000001 -12.703306 1216.341288 -172.315059 556.042804 -2.534600 -1.686404 5.195002 6.118022 6.315378 20.493334 -4.144102 0.000005 0.000002 165.554578 177.604576 -90.141504 0.000003 0.000002 -10.116489 -583.542184 -166.871371 -196.046223 0.000003 0.000004 -12.937801 -1436.215022 -10.713486 15.096067 2.175599 0.064507 -2.662901 -985.285715 -29.949044 53.715545 -0.000003 0.000001 -18.585808 486.365476 -226.092116 -172.755510 -0.000012 0.000004 -18.979502 696.256261 10.251143 -742.581226 -2.092392 -0.058105 -2.581211 1516.501656 43.435263 -27.131818 -0.000009 -0.000003 -18.665005 -1131.529573 68.480433 -1137.986232 0.000000 0.000000 -18.566624 673.458401 8.856349 133.076100
66.810402 -7.765293 42.050198 3168.780915 36.074006 16.266323 -0.153497 1.163111 7.852401 20.629772 6.939313 6.553995 0.000007 0.000002 3.343302 -5.821424 -2.836793 -0.032993 0.000002 -0.000006 7.785496 49.805770 -24.659455 14.227745 -0.000004 0.000008 2.173905 5.336966 -9.872255 6.903705 2.676297 -1.652395 4.938307 -3.031273 6.273227 2.690907 4.299009 0.000000 0.000002 -363.707683 16.544704 269.801816 -0.000006 0.000005 -10.245096 0.435521 725.481438 383.196343 0.000002 0.000001 -12.703314 1216.489476 -172.347434 556.062147 -2.534600 -1.686409 5.195004 5.984888 5.989052 20.398234 -4.144106 -0.000009 0.000003 165.616692 177.754580 -90.017645 -0.000002 0.000002 -10.116488 -583.235427 -166.836400 -196.127994 -0.000002 0.000003 -12.937806 -1436.258954 -10.689892 15.028747 2.175592 0.064508 -2.662895 -984.453743 -30.197803 54.223345 -0.000002 0.000010 -18.585806 487.590922 -226.094711 -173.366990 -0.000007 -0.000006 -18.979504 694.831811 10.673944 -742.798427 -2.092392 -0.058095 -2.581202 1517.749012 43.369546 -28.220520 0.000000 0.000001 -18.665005 -1131.263578 68.580072 -1139.011963 -0.000002 0.000000 -18.566624 673.367586 8.663093 133.014533
66.805000 -7.770588 42.017094 3168.846485 36.382300 16.493657 -0.153506 1.163102 7.852404 20.449274 6.929969 6.514967 0.000006 0.000004 3.343302 -5.847819 -2.869341 -0.032414 0.000001 -0.000013 7.785499 49.927457 -24.960018 14.384197 0.000000 -0.000001 2.173903 5.405002 -10.044150 6.737103 2.676291 -1.652400 4.938296 -3.087004 6.345509 2.721253 4.298997 0.000006 -0.000008 -363.572773 16.497378 269.545930 -0.000005 0.000007 -10.245093 0.838985 725.790217 383.005890 -0.000002 0.000007 -12.703300 1216.224355 -172.381721 556.122581 -2.534608 -1.686406 5.195004 6.104435 5.891556 19.961438 -4.144102 0.000003 -0.000002 165.504103 178.726065 -89.490785 -0.000001 0.000000 -10.116492 -582.007304 -166.929495 -196.162855 0.000000 0.000001 -12.937798 -1436.459816 -10.661510 15.044798 2.175590 0.064488 -2.662895 -983.971914 -30.379992 54.589163 -0.000004 0.000007 -18.585800 488.853250 -226.095695 -174.005271 -0.000003 0.000008 -18.979502 693.348622 10.944357 -743.023331 -2.092398 -0.058104 -2.581203 1518.624588 43.366428 -29.235115 0.000002 -0.000017 -18.665009 -1131.053317 68.800721 -1139.876064 -0.000009 -0.000003 -18.566608 673.226447 8.454955 133.256403
66.804199 -7.775700 41.991398 3168.831186 36.802173 16.729865 -0.153502 1.163101 7.852406 20.366019 6.843450 6.573528 -0.000002 0.000003 3.343305 -5.916046 -2.930387 -0.032328 0.000003 0.000000 7.785495 49.992443 -25.286132 14.539728 -0.000003 0.000007 2.173913 5.394013 -10.031898 6.676022 2.676295 -1.652406 4.938295 -3.051452 6.408237 2.677702 4.299005 0.000005 -0.000011 -363.562746 16.731187 269.240456 -0.000002 0.000002 -10.245092 1.419209 726.098996 382.953189 -0.000006 0.000000 -12.703307 1216.020105 -172.427224 556.175037 -2.534594 -1.686413 5.194994 6.151938 5.844120 19.775952 -4.144102 0.000001 -0.000002 165.290551 179.833335 -89.302715 0.000007 -0.000010 -10.116492 -580.976765 -166.977020 -196.326070 0.000007 0.000008 -12.937799 -1436.372936 -10.691696 14.902552 2.175596 0.064494 -2.662905 -983.239827 -30.475724 55.144024 -0.000007 0.000001 -18.585798 489.957500 -226.116855 -174.511156 -0.000003 0.000007 -18.979502 691.815326 11.205225 -743.282168 -2.092388 -0.058095 -2.581202 1519.261599 43.338179 -29.859459 0.000002 -0.000004 -18.665010 -1130.499471 69.076094 -1140.888352 -0.000003 0.000000 -18.566607 673.224972 8.534861 133.622597
